<svg xmlns="http://www.w3.org/2000/svg" viewBox="0 0 512 512" width="512" height="512">
  <defs>
    <!-- Background Gradient: Sleek Slate/Navy -->
    <linearGradient id="bgGrad" x1="0%" y1="0%" x2="100%" y2="100%">
      <stop offset="0%" stop-color="#0f172a" />
      <stop offset="50%" stop-color="#090d16" />
      <stop offset="100%" stop-color="#020408" />
    </linearGradient>
    
    <!-- Triangle Gradient: Sky blue to Neon Cyan -->
    <linearGradient id="triangleGrad" x1="0%" y1="100%" x2="0%" y2="0%">
      <stop offset="0%" stop-color="#0ea5e9" />
      <stop offset="100%" stop-color="#00f0ff" />
    </linearGradient>

    <!-- Core Glow Filter -->
    <filter id="glow" x="-20%" y="-20%" width="140%" height="140%">
      <feGaussianBlur stdDeviation="12" result="blur" />
      <feMerge>
        <feMergeNode in="blur" />
        <feMergeNode in="SourceGraphic" />
      </feMerge>
    </filter>

    <!-- Subtle Radial Glow behind the logo -->
    <radialGradient id="radialGlow" cx="50%" cy="55%" r="45%">
      <stop offset="0%" stop-color="#00f0ff" stop-opacity="0.18" />
      <stop offset="100%" stop-color="#00f0ff" stop-opacity="0" />
    </radialGradient>
  </defs>

  <!-- Background Card -->
  <rect width="512" height="512" rx="128" fill="url(#bgGrad)" />
  
  <!-- Subtle glowing border -->
  <rect x="6" y="6" width="500" height="500" rx="122" fill="none" stroke="#00f0ff" stroke-opacity="0.15" stroke-width="8" />

  <!-- Ambient Glow in center -->
  <circle cx="256" cy="266" r="180" fill="url(#radialGlow)" />

  <!-- Stylized modern "▲" shape with rounded vertices and a sleek gap/slice -->
  <g filter="url(#glow)">
    <!-- Main Triangle with smooth rounded corners -->
    <path d="M 233.5 137.9
             L 115.1 343.0
             C 100.3 368.6 118.8 400.0 148.4 400.0
             L 363.6 400.0
             C 393.2 400.0 411.7 368.6 396.9 343.0
             L 278.5 137.9
             C 268.2 120.1 243.8 120.1 233.5 137.9 Z" 
          fill="url(#triangleGrad)" />
          
    <!-- Sleek cutout to make it look like a premium tech brand (letter A / upward arrow) -->
    <path d="M 256 220
             L 180 350
             L 332 350 Z" 
          fill="#0f172a" />
  </g>
</svg>